<?xml version="1.0" encoding="utf-8"?>
<!-- Generator: Adobe Illustrator 22.1.0, SVG Export Plug-In . SVG Version: 6.00 Build 0)  -->
<svg version="1.1" id="Capa_1" xmlns="http://www.w3.org/2000/svg" xmlns:xlink="http://www.w3.org/1999/xlink" x="0px" y="0px"
	 viewBox="0 0 512 512" style="enable-background:new 0 0 512 512;" xml:space="preserve">
<style type="text/css">
	.st0{fill:#E96B17;}
</style>
<g>
	<g>
		<g id="Layer_5_58_">
			<g>
				<g>
					<path class="st0" d="M383.1,157.4c-15.3-6.1-19.7-9.8-19.7-16.5c0-5.4,4.1-11.6,15.5-11.6c10.1,0,17.9,4,18,4
						c0.8,0.4,1.7,0.7,2.6,0.7c2.2,0,4.2-1.3,5-3.4l2.8-7.1c1-2.6-0.5-4.8-2.4-5.7c-6.2-2.7-18.4-4.8-18.5-4.8c-0.2,0-0.9-0.2-0.9-1
						l0-10.3c0-3.1-2.6-5.6-5.8-5.6h-5c-3.2,0-5.8,2.5-5.8,5.6l0,10.8c0,0.8-0.9,1.2-1.2,1.3c-15.4,3.7-25,14.9-25,29.1
						c0,17.7,14.6,25.7,30.4,31.7c12.6,5,17.8,10,17.8,17.4c0,8-7.3,13.6-17.8,13.6c-8.9,0-21-5.7-21.1-5.7
						c-0.8-0.4-1.6-0.6-2.4-0.6c-2.3,0-4.3,1.4-5.1,3.5l-2.7,7.2c-0.9,2.7,0.5,4.9,2.4,5.8c7.4,3.9,21.8,6.1,22.4,6.2
						c0.2,0,1,0.3,1,1.1v10.8c0,3.1,2.6,5.6,5.8,5.6h5.2c3.2,0,5.8-2.5,5.8-5.6v-11.4c0-1.1,0.8-1.2,0.9-1.2
						c16.4-3.7,26.5-15.7,26.5-30.7C411.7,175.4,403.2,165.4,383.1,157.4z"/>
					<path class="st0" d="M376.6,32.5c-74.8,0-135.4,60.6-135.4,135.4c0,74.8,60.6,135.4,135.4,135.4c74.8,0,135.4-60.6,135.4-135.4
						C512,93.1,451.4,32.5,376.6,32.5z M376.6,271.9c-57.4,0-104-46.6-104-104s46.6-104,104-104c57.4,0,104,46.6,104,104
						S434.1,271.9,376.6,271.9z"/>
				</g>
				<g>
					<path class="st0" d="M484.5,368.9c-28.8,15.9-68.4,30.6-107.9,36.8c-35.1,5.5-101.2-7.8-101.2-23.5c0-5.9,58,14.7,93,5.3
						c26.9-7.2,23.1-32.3,8.4-35.6c-14.5-3.3-99.7-34.5-136.1-35.6c-17.1-0.5-59.5,6-79.9,9.3c-7,1.1-11.4,1-11.9,7.7
						c-2,31.2-6.1,95-8.2,128.3c0,0.7,0.9,10.2,8.7,3.5c8.6-7.3,20.5-15.4,31.6-12.9c17.4,3.9,168,31.5,188.8,26.7
						c29.7-6.9,113.8-56.8,130-72.3C524.9,382.7,505.4,357.3,484.5,368.9z"/>
					<path class="st0" d="M107.4,324.3l-78.9-3.9c-6.1-0.3-12.3,4.3-13.8,10.2L0.3,460.9c-1.5,5.9,2.2,10.9,8.3,11.2l87.4,0
						c6.1,0.2,11.5-4.5,11.9-10.6l9.6-125.5C118.1,329.8,113.5,324.6,107.4,324.3z M61,454.8c-12,0-21.8-9.8-21.8-21.8
						c0-12,9.8-21.8,21.8-21.8s21.8,9.8,21.8,21.8C82.8,445,73,454.8,61,454.8z"/>
				</g>
			</g>
		</g>
	</g>
</g>
</svg>
