<?xml version="1.0" encoding="utf-8"?>
<!-- Generator: Adobe Illustrator 22.1.0, SVG Export Plug-In . SVG Version: 6.00 Build 0)  -->
<svg version="1.1" id="Capa_1" xmlns="http://www.w3.org/2000/svg" xmlns:xlink="http://www.w3.org/1999/xlink" x="0px" y="0px"
	 viewBox="0 0 512 512" style="enable-background:new 0 0 512 512;" xml:space="preserve">
<style type="text/css">
	.st0{fill:#E96B17;}
</style>
<g>
	<g>
		<g id="icons_1_">
			<g>
				<path class="st0" d="M156,310c-21.1-24.2-24.1-62.2-38.5-80.5c-12.1-15.3-31.2-7.9-33.5,5.5c-3.5,20.8,18.7,82,30,101.6
					c2.8,4.9-2.2,13.9-10.9,6.1c-8.7-7.8-43.1-87-29.7-139.2c6.6-25.6-10.4-52.3-32.1-38.8c-21.7,13.5-34.4,126.1-2.1,192
					c27.2,55.6,84.7,92.4,94.6,98.6c6.8,4.3,9.5,29.1,10.6,44.5c0.5,7.3,2.5,12.2,10.5,12.2c8.9,0,26.9,0,51.9,0
					c13,0,13.5-7.8,13.5-11.6C220.2,402.2,225.5,389.7,156,310z"/>
				<path class="st0" d="M356,310c21.1-24.2,24.1-62.2,38.5-80.5c12.1-15.3,31.2-7.9,33.5,5.5c3.5,20.8-18.7,82-30,101.6
					c-2.8,4.9,2.2,13.9,10.9,6.1c8.7-7.8,43.1-87,29.7-139.2c-6.6-25.6,10.4-52.3,32.1-38.8c21.7,13.5,34.4,126.1,2.1,192
					c-27.2,55.6-84.7,92.4-94.6,98.6c-6.8,4.3-9.5,29.1-10.6,44.5c-0.5,7.3-2.5,12.2-10.5,12.2c-8.9,0-26.9,0-51.9,0
					c-13,0-13.5-7.8-13.5-11.6C291.8,402.2,286.5,389.7,356,310z"/>
				<path class="st0" d="M323.7,0C297,0,272.7,10.7,255,27.9C237.3,10.7,213,0,186.3,0c-54.4,0-98.5,44.1-98.5,98.5
					c0,21.1,6.7,40.7,18,56.7c4.5,7,9.9,13.5,16.1,19.1l102.1,102.3c10.2,10.2,20.5,20.5,30.7,20.5c0.1,0,0.2,0,0.3,0
					c0.1,0,0.2,0,0.3,0c10.2,0,20.5-10.2,30.7-20.5l102.1-102.3c6.2-5.6,11.6-12,16.1-19.1c11.3-16,18-35.6,18-56.7
					C422.2,44.1,378.1,0,323.7,0z"/>
			</g>
		</g>
	</g>
</g>
</svg>
