<?xml version="1.0" encoding="utf-8"?>
<!-- Generator: Adobe Illustrator 22.1.0, SVG Export Plug-In . SVG Version: 6.00 Build 0)  -->
<svg version="1.1" id="Capa_1" xmlns="http://www.w3.org/2000/svg" xmlns:xlink="http://www.w3.org/1999/xlink" x="0px" y="0px"
	 viewBox="0 0 512 512" style="enable-background:new 0 0 512 512;" xml:space="preserve">
<style type="text/css">
	.st0{fill:#E96B17;}
</style>
<g>
	<g>
		<g>
			<path class="st0" d="M5.2,204.4c-0.9,4.2-1.6,8.4-2.3,12.6c-0.6,4.2-1.2,8.5-1.6,12.8C0.5,238.4,0,247.2,0,256
				c0,8.8,0.4,17.6,1.3,26.2c0.4,4.3,1,8.6,1.6,12.8c0.6,4.2,1.4,8.4,2.3,12.6c0.9,4.2,1.8,8.3,2.9,12.4c2.1,8.2,4.6,16.2,7.5,24
				c1.4,3.9,3,7.8,4.6,11.6c1.6,3.8,3.3,7.6,5.1,11.3c0.9,1.9,1.8,3.7,2.8,5.6c1.9,3.7,3.9,7.3,5.9,10.9c6.2,10.7,13.1,21,20.7,30.6
				c3.8,4.8,7.8,9.5,11.9,14.1c2.8,3,5.6,6,8.5,8.9c2.9,2.9,5.9,5.7,8.9,8.5c13.6,12.4,28.6,23.3,44.7,32.6c3.6,2.1,7.2,4,10.9,5.9
				c7.4,3.8,14.9,7.2,22.7,10.3c3.9,1.5,7.8,3,11.8,4.3c25.8,8.7,53.4,13.5,82.1,13.5c19.6,0,38.6-2.2,57-6.4
				c8.6-1.9,16.9-4.3,25.1-7.1c4-1.3,7.9-2.8,11.8-4.3c7.8-3.1,15.3-6.5,22.7-10.2c3.7-1.9,7.3-3.9,10.9-5.9
				c16.1-9.2,31.1-20.2,44.7-32.6c3-2.8,6-5.6,8.9-8.5c2.9-2.9,5.7-5.9,8.5-8.9c4.1-4.5,8.1-9.2,11.9-14.1c6-7.6,11.6-15.7,16.7-24
				c1.4-2.2,2.7-4.4,4-6.7c2.1-3.6,4-7.2,5.9-10.9c0.9-1.8,1.9-3.7,2.8-5.6c1.8-3.7,3.5-7.5,5.1-11.3c1.6-3.8,3.1-7.7,4.6-11.6
				c2.9-7.8,5.4-15.9,7.5-24c1.1-4.1,2-8.2,2.9-12.4c0.9-4.2,1.6-8.4,2.3-12.6c0.6-4.2,1.2-8.5,1.6-12.8c0.9-8.6,1.3-17.3,1.3-26.2
				c0-8.8-0.4-17.6-1.3-26.2c-0.4-4.3-1-8.6-1.6-12.8c-0.6-4.2-1.4-8.4-2.3-12.6c-0.9-4.2-1.8-8.3-2.9-12.4
				c-2.1-8.2-4.6-16.2-7.5-24c-0.7-2-1.5-3.9-2.2-5.8c-2.3-5.8-4.8-11.5-7.5-17.1c-0.9-1.9-1.8-3.7-2.8-5.6
				c-1.9-3.7-3.9-7.3-5.9-10.9c-6.2-10.7-13.1-21-20.7-30.6c-3.8-4.8-7.8-9.5-11.9-14.1c-2.8-3-5.6-6-8.5-8.9
				c-2.9-2.9-5.9-5.7-8.9-8.5c-5.9-5.3-12-10.4-18.3-15.2c-8.4-6.3-17.2-12.1-26.4-17.4c-3.6-2.1-7.2-4-10.9-5.9
				c-1.7-0.9-3.4-1.7-5.1-2.5c-2-1-4.1-1.9-6.1-2.9c-0.9-0.4-1.7-0.8-2.6-1.1c-2.9-1.3-5.9-2.5-8.9-3.7c0,0-0.1,0-0.1,0
				c-3.2-1.3-6.4-2.4-9.7-3.6c-0.7-0.2-1.3-0.5-2-0.7c-7.6-2.6-15.3-4.8-23.2-6.6c-2.5-0.6-4.9-1.1-7.4-1.6c-1.8-0.4-3.6-0.7-5.4-1
				c-13.5-2.4-27.3-3.8-41.4-4.1C259.1,0,257.6,0,256,0c-2.7,0-5.3,0.1-7.9,0.1c-25.9,0.8-50.8,5.4-74.2,13.3
				c-4,1.3-7.9,2.8-11.8,4.3c-1.2,0.5-2.4,1-3.6,1.5c-2.7,1.1-5.3,2.2-7.9,3.4c-3.8,1.7-7.5,3.5-11.2,5.4c-3.7,1.9-7.3,3.9-10.9,5.9
				c-14.4,8.3-27.9,17.9-40.3,28.7c-1.5,1.3-2.9,2.6-4.4,3.9c-3,2.8-6,5.6-8.9,8.5c-2.9,2.9-5.7,5.9-8.5,8.9
				c-4.1,4.5-8.1,9.2-11.9,14.1c-7.6,9.7-14.5,19.9-20.7,30.6c-2.1,3.6-4,7.2-5.9,10.9c-0.9,1.8-1.9,3.7-2.8,5.6
				c-2.7,5.6-5.2,11.3-7.5,17.1c-0.8,1.9-1.5,3.9-2.2,5.8c-2.9,7.8-5.4,15.9-7.5,24C7,196.1,6.1,200.2,5.2,204.4z M212.6,17.6
				c0.5,0.8,0.9,1.8,2.1,2.2c2.4-1.2,4.8,0.1,7.4,0c2.6-0.1,4.9-1.3,7.7-0.8c5,0.8,12,5.7,15.9,3c1-0.7,0.8-1.8,1.7-3.6
				c0.7-1.4,1.8-2.9,2.5-4.6c2,0,4-0.1,6-0.1c16.6,0,32.7,1.7,48.4,4.9c-0.7,1.7-2.8,1-4.6,1.8c-1.7,0.8-2.3,2.4-4.1,2.7
				c-5,0.9-9.1-1.3-13.5-1.1c-0.2,1.9,2.1,3,3.3,3.6c3.9,2.1,7.1,1.8,12.6,1.7c2.8-0.1,6.1,0.8,8.5-0.8c1.5-1.1,1.5-3.4,2.8-4.7
				c0.5-0.5,1.4-1.1,2.3-1.6c2.7,0.6,5.4,1.3,8.1,2.1c-0.5,1.8-3.4,1.4-3.5,3.9c1.9,1.1,6.4-0.6,8.1-2.6c0.7,0.2,1.3,0.4,2,0.6
				c3.9,1.2,7.7,2.5,11.5,3.8c5.4,2,10.8,4.1,16,6.4c-1,0.6-2.1,1.4-3,1.3c-2.3,0-3.2-3.1-5.8-1.9c-0.2,2.9,3.1,4.1,5.2,5.5
				c2.3,1.5,4.7,2.9,5.5,5.5c-2.2,4.7-5.8-0.2-9.4-0.3c-3.9,0-9.6,7.4-12.9,1.4c0.8-3.2,4.4-3.7,5.2-6.9c-0.8,0.1-1.5,0.4-2.2,0.7
				c-1.3,0.5-2.6,1.2-3.9,1.9c-1.8,0.9-3.6,1.9-5.7,2.3c-1.9,0.4-3.8,0.3-5.5,0.8c-3.3,1-5.6,3.4-9.1,4.7c-1.4,0.5-3,0.3-4.4,0.8
				c-3.3,1.1-7.3,3.1-10.7,4.9c-3.5,1.9-7.5,3.9-9.6,5.8c-1.2,1-4.2,4.6-4.1,5.8c0.1,1.6,3.2,2.2,3.3,3.8c-0.1,1-1.8,3.2-0.5,4.7
				c1.1,1.3,3.4,0.3,5.8,0.5c4.2,0.5,7,4,10.2,5.8c2.4,1.3,6.1,2.9,8.8,3.3c3.8,0.5,8-1.1,8.5,1.9c0.5,2.9-3.6,3.9-3.8,5.8
				c2,2.7-1.4,4-1.4,6.3c0,1.9,2.3,4.8,4.4,4.9c2.8,0.2,6.8-2.7,8-5.5c1.4-3.3,0.8-7.8,3.3-10.2c12.8,0.4,23.7-5.8,22.8-18.9
				c-0.1-1.3-0.8-3-0.5-4.4c0.4-2.1,4.1-3.9,3.6-6.6c1.4-0.4,2.2-1.5,2.9-2.8c1.1-1.9,1.9-4,3.8-4.7c0.1-0.1,0.3-0.1,0.4-0.2
				c1.1-0.3,2.3,0,3.5,0.3c2.2,0.6,4.6,1.8,7.2,1.6c1.3-0.1,3.1-1.3,4.4-1.1c2.7,0.4,4.3,3.7,6.3,5.2c1.8,1.4,3.7,0.9,4.1,2.7
				c-0.5,3-2.7,3.2-2.5,6c0,0,0,0,0,0.1c0.2,2.5,2.8,4.4,4.1,4.7c2,0.4,4.9-0.7,6.9-1.7c2.2-1,4.1-3.2,6-4.8c2.7,2.1,5.4,4.2,8,6.4
				c0.3,1.2,0.5,2.3,0.6,3.1c0.4,3-0.4,5.2-0.3,8c0.4,4.6,6.2,4.2,9.1,6.6c0.9,0.7,1.2,2.6,1.9,3.6c1.4,1.9,3.1,1.9,3.3,3.8
				c0.5,4.7-4.3,5.1-3.9,10.4c-1,2.1-3.5,1.9-3.3,4.7c0.3,4.3,6.6,1,8.3,4.4c0.9,1.8-0.2,3.2-0.8,5.8c2.1,2.5,2.1,6.6-1.6,6.6
				c-2.3,0-2.9-2.5-5.2-3c-1.3-0.3-3-0.3-4.7-0.5c-1.4-0.2-3.1-0.7-4.4-0.8c-3.4-0.4-7.1,0.6-9.1-1.4c3.3-4.3,7.6-8.6,11.8-12.4
				c1.3-1.1,3.9-1.9,3.3-4.1c-2.3-2.1-5.2,0.1-7.4,1.4c-2.3,1.3-5.1,3.2-7.7,3.6c-4.5,0.7-10.6-1.3-14.3,1.1
				c-0.5,2.1,4.2,1.3,3.6,4.4c-1.8,0.3-3.5,0.4-4.9-0.8c-1.3-1.1-0.5-2.9-1.4-3.6c-1.4-1.2-6.7-1.5-9.1-1.1
				c-2.9,0.5-5.4,2.2-5.8,4.7c3.5,1.6,9.2-1.7,10.5,2.5c-1.9,3.4-6.4,5.3-5.8,9.9c0.2,1.8,2.3,4.1,3.9,4.4c1.5,0.3,2.4-1.2,3.8-1.1
				c1.6,0.1,1.2,1.9,3,1.7c2.6-1.1,4.1-4.8,7.1-4.7c3.6,4.4-3.3,6.6-7.1,8c-4.4,1.6-10.1,2.4-13.5,3.8c-1.8,0.7-8.4,7.2-9.3,2.2
				c-0.7-3.6,3.3-2.5,4.1-5.5c-4.3-0.8-8.2,1.8-12.1,3.3c-5.5,2.1-14.9,3.4-16.2,9.6c-0.3,1.2,0.5,3.6-0.3,4.4
				c-0.7,0.7-4.6,0.8-6.3,1.4c-2.7,0.9-5,2.9-6.6,3.3c-1.2,0.3-3.1,0.2-3.8,0.6c-2.2,0.8-3,3.8-5.5,5.8c-1,0.8-3.3,1.4-4.1,2.2
				c-1.4,1.4-1.6,5-4.1,5.5c-1.6,0.1-2.9-1.2-4.4-0.3c-0.2,3.5,1.2,8.3-0.3,11.8c-3.3,2.7-6.8,4.5-11,6.9c-2.3,1.3-4.4,1.6-7.2,3
				c-2,1-3.8,3.3-6.1,4.7c-5.3,3.1-11.6,6.7-11.6,14.6c0,1.7,0.9,3.5,1.1,5.5c0.1,1.2-0.1,2.3,0,3.6c0.3,2.9,2.4,6.5,0,8.5
				c-3.7-1.5-8.4-2-11-4.7c-0.7-2.7,1.4-4.9,1.1-7.4c-0.3-2-3.1-5.5-4.7-5.8c-1.7-0.3-3.2,1.5-4.9,1.4c-2.1-0.2-4-3-6.6-3.3
				c-3.9-0.5-6.7,0.9-11,0.3c-4.1,2.2-5.4,6.1-10.4,5.8c-1.8-0.1-3.4-1.5-5.5-1.9c-2.2-0.5-5.6-1.3-8-1.1c-4.7,0.3-8.1,3.7-12.1,5.8
				c-3.5,1.8-8.6,4.1-9.6,8c-0.6,2.1-0.1,5-0.8,6.9c-0.5,1.3-1.5,2.4-2.2,3.6c-3.1,5.6-5.6,13.1-3.3,21.1c0.3,1.2,3.4,8,4.7,9.3
				c1.4,1.5,5.6,3.8,8,3.8c2,0,4.4-1,6.3-1.4c2.3-0.4,5.1-0.4,7.2-1.1c5.9-1.9,4.8-9.9,10.7-12.6c2.6-1.2,5.6-1.4,10.2-1.6
				c1.5,1.2,2.1,3.4,1.9,5.2c-0.2,1.4-1.5,2.7-2.2,4.7c-0.6,1.8-0.8,3.8-1.4,5.2c-0.8,1.9-2.6,3.2-3.3,4.9c-0.4,1.1-0.2,2.5-0.5,3.6
				c-0.6,1.8-3.1,3.1-1.9,4.9c5.9,2.3,13-0.7,18.2,0.3c2.2,0.4,6.6,3,6.6,6.3c0,2.5-1.9,4.1-2.2,6.9c-0.3,3.4-1.8,7.6-1.9,10.4
				c-0.2,4.6,6.7,12.4,11.6,12.4c5.2-0.1,8.3-5.2,14.6-2.5c2.1,0.9,4.3,4.3,6.6,4.1c1.9-0.1,4.8-3.5,6-5.8c1.5-2.8,1.7-5.2,4.4-6.6
				c3-1.5,5.3-0.8,9.1-2.2c1.7-0.6,3.2-1.7,4.7-2.7c1.3-0.9,2.7-3.3,4.4-1.7c2.2,2.2-2.7,3.4-0.8,5.8c3.8,2,5.8-3.8,8.5-3.8
				c0.9,0,3.9,1.7,5.5,2.7c2.1,1.4,2.9,3.4,5.2,3.8c1.5,0.3,3.9-0.6,6-0.3c2.8,0.4,4.5,2.8,6.6,2.7c2.6-0.1,3.8-2.9,6.1-3.3
				c4.9-0.9,6.7,0.5,8.8,3.6c2.4,0.4,2.5-2.8,4.7-1.6c-1.2,2.4,0.4,3.5,1.4,5.5c0.6,1.3,0.5,2.2,1.1,2.7c1.3,1.2,3.8,1.2,5.8,2.5
				c2,1.3,3.2,3.6,5.5,6.3c2.4,2.7,6.4,5.6,9.6,5.8c3,0.2,5.5-0.9,8-0.5c5.7,0.7,9.2,3.5,13.2,6.6c2.2,1.7,4.2,2.9,4.9,4.9
				c0.5,1.4,0.3,3.3,0.8,4.9c1.2,3.4,6.2,5.1,4.4,11c0.8,1.7,2.7,2.4,4.7,3.6c1.6,1,2.9,3,4.7,3.3c1.1,0.2,2.3-0.3,3.3-0.3
				c3.1,0.2,5.3,1.4,8,2.5c1.7,0.6,3.8,0.9,5,1.7c1.4,0.9,1.6,4.1,3.3,4.9c1.1,0.5,3.6-0.2,5.5,0c3,0.3,7,2.1,9.6,2.2
				c1.6,0,3-0.7,4.4-0.5c3.3,0.3,6,2.4,8.6,4.7c-33.1,53.4-86.4,93.1-149.2,108.2c-0.2-2.4-0.9-4.8-1-7.2c-0.2-5.2,0.6-8.9-0.3-13.7
				c-0.6-3.6-1.4-9.2-2.8-11.5c-1.5-2.6-7.3-6.9-10.2-8.5c-1.9-1.1-4.2-1.4-6.3-2.5c-4.5-2.2-13.2-6.8-15.1-11.3
				c-0.6-1.3-0.5-3-1.1-4.4c-1.2-2.8-3.7-5.3-5.5-8c-3.4-5.2-6.1-11.7-9.6-17c-1.8-2.7-3.3-5.8-5.2-8c-1.1-1.3-4.8-2.5-5.2-4.4
				c-0.6-2.5-2.5-6-2.2-8c0.4-2.6,5.5-4.7,5.5-7.1c0-2-2.7-3.2-3.3-4.9c-1.4-4.2,0.8-6.7,2.5-10.2c0.5-1.2,1.1-3,1.7-3.8
				c1-1.5,3.1-1.9,4.4-3.6c0.8-0.9,1.2-2.8,2.2-4.1c2.1-2.8,5.5-3.8,6.3-6.3c0.7-2,1.1-12.2,0.3-15.6c-0.5-2-2.3-3.6-3-5.5
				c-1.2-3.3-1.5-6.9-5-6.9c-2.1,0-3.6,2.4-5,3.8c-0.3,2-0.2,4.1-2.2,4.7c-3.1,0.9-4.3-3.3-8-4.4c-1.5-0.4-3.8-0.4-4.7-0.8
				c-2.7-1.2-3.5-5.1-6.3-6.6c-2.3-1.3-4.4-0.8-5.8-2.7c-0.6-1.3-0.1-3.7-0.3-5.5c-3-1.8-5.6-8.3-9.1-9.9c-2.3-1-5.9-0.9-8.8-1.9
				c-1.4-0.5-2.4-1.1-3.9-1.4c-1.8-0.4-3.6-0.4-4.9-1.1c-5.4-2.7-8.4-11.4-15.1-11.3c-2.9,0.1-5.6,2.8-8.3,2.7
				c-2.6,0-6.9-2.1-10.2-3.6c-3.4-1.6-7.1-2.4-9.9-3.8c-2.3-1.2-3.8-3.3-5.8-4.1c-1.5-0.7-3.7-0.8-4.9-1.4c-1.8-0.8-3.6-2.6-5.8-4.1
				c-2.1-1.4-4.3-3.6-4.4-5.5c-0.1-2.1,2-4,2.2-6c0.7-6.5-4.1-11.2-7.2-15.1c-2.3-2.9-4.9-5.3-7.1-8c0.1-1.8,0.1-2.1,0-3.8
				c-1.7-1.7-3.1-4.1-5-6.6c-1.6-2.2-4.8-4.6-5.2-7.1c-0.5-3.1,1.2-5.8,0-8.8c-2-5-8.9-2.7-8,3.8c0.2,1.8,2.8,4.2,3.6,6
				c0.8,1.8,0.6,4.1,1.4,6.3c0.7,2.1,2.8,3.9,3.6,6.3c1.2,3.8,1.1,7.8,2.2,10.2c0.9,2.1,4.4,4.1,2.5,6.6c-2.6,0.5-3.6-2.1-5.2-3.6
				c-0.9-0.8-4.2-2.4-4.7-4.4c-0.4-1.6,1-3.8,0.5-5.8c-0.9-3.9-8.8-4-8.8-8c0-2.5,3.3-2.8,3.3-5.2c0-2.6-3.6-4.9-4.4-7.1
				c-0.7-2.1-0.8-5.3-1.1-8.2c-0.3-2.7,0.1-5.9-0.6-8c-0.6-1.9-3.4-4.5-5.2-5.5c-2.4-1.3-4.3-0.8-5.5-2.7c-1-1.7-1.7-5.3-1.9-7.1
				c-0.4-3.3-0.1-6.9-0.3-10.4c-0.2-3.5-0.5-6.9,0-10.7c1.4-2.7,3.8-4,5.2-6.6c1-1.8,1.1-4.1,2.2-6c2-3.6,6.4-6.9,9.4-10.4
				c3.2-3.8,6.1-7.5,8-11.8c0.7-1.5,2.5-5,2.2-6.9c-0.4-2.6-5.3-4.8-5-8c0.2-1.9,3-1.9,3.9-3.8c0.4-1,0.8-3.8,0.8-4.9
				c0-2.6-1.4-5.4-0.8-8.2c0.5-2.4,4-3.4,2.2-6c-1.8-2.6-5.1,1.4-7.2-0.3c-1.9-1.6,0.4-3.4,0.5-6.3c0.1-1.1-0.7-2.4-0.5-3.3
				c0.2-1.2,2.6-3.3,1.9-4.1c-1-1.3-2.1-3.8-3.6-5.8C135.7,42.1,172.4,24.9,212.6,17.6z"/>
		</g>
	</g>
</g>
</svg>
