<?xml version="1.0" encoding="utf-8"?>
<!-- Generator: Adobe Illustrator 22.1.0, SVG Export Plug-In . SVG Version: 6.00 Build 0)  -->
<svg version="1.1" id="Capa_1" xmlns="http://www.w3.org/2000/svg" xmlns:xlink="http://www.w3.org/1999/xlink" x="0px" y="0px"
	 viewBox="0 0 512 512" style="enable-background:new 0 0 512 512;" xml:space="preserve">
<style type="text/css">
	.st0{fill:#E96B17;}
</style>
<g>
	<g>
		<path class="st0" d="M353.6,176.7c0,55.4-44.9,100.3-100.3,100.3c-55.4,0-100.3-44.9-100.3-100.3c0-55.4,44.9-100.3,100.2-100.3
			C308.7,76.5,353.6,121.4,353.6,176.7z M455.2,471.7c-2.2,2.2-5.6,2.7-8.2,1.1l-73.1-42.7c-0.8,8.3-1.8,20.4-3,32.6
			c-1,10.8-2,21.6-2.8,29.7c-0.4,4.1-0.7,7.5-1,9.8c-0.5,4.3-1,9.6-7,9.7c0,0-0.1,0-0.1,0c-1.8,0-3.5-0.7-4.8-1.9
			c-1.1-1-1.8-2.5-2-4c-2.4-8.3-39.9-94.4-70.5-164l-6,4.5c-2.1,1.6-4.5,3-6.9,4c-10.8,4.7-23.6,3.5-33.4-3.2l-10.6-7.3
			c-29.5,69.1-64.5,152.1-66.8,160.2c-0.2,1.5-0.9,3-2,4c-1.3,1.2-3,2-4.7,2c0,0-0.1,0-0.1,0c-6-0.1-6.6-5.4-7.1-9.6
			c-0.3-2.4-0.7-5.8-1.1-9.8c-0.9-8.1-2-18.9-3.1-29.6c-1.3-12.1-2.5-24.3-3.3-32.5L65,468c-2.7,1.6-6.1,1.2-8.2-1
			c-2.2-2.2-2.6-5.6-1-8.2L145,312.4c-12.4-3.6-21.9-13.9-24.2-26.9l-8.6-47.1l-28.7-38.2c-8.9-11.9-9.2-28-0.8-40.3l27.2-39.3
			l6.7-47.4c1.7-11.7,9.4-22,20.3-26.7c2.4-1.1,5-1.9,7.6-2.3l47.1-8.6l38.2-28.7c2.1-1.6,4.5-3,6.9-4c11-4.8,23.5-3.6,33.4,3.2
			l39.3,27.2l47.4,6.7c14.7,2.1,26.4,13.3,29,27.9l8.6,47.1l28.7,38.2c8.9,11.9,9.2,28,0.8,40.3l-27.2,39.3l-6.7,47.4
			c-1.7,11.7-9.4,22-20.3,26.7c-2.4,1.1-5,1.8-7.6,2.3l-2,0.4l96,153.8C457.8,466.1,457.4,469.5,455.2,471.7z M368.8,176.7
			c0-63.7-51.7-115.4-115.4-115.4c-63.7,0-115.4,51.7-115.4,115.4c0,63.7,51.7,115.4,115.4,115.4
			C317.1,292.1,368.8,240.5,368.8,176.7z"/>
	</g>
</g>
</svg>
